<mxfile host="app.diagrams.net" modified="2023-11-01T03:43:27.095Z" agent="Mozilla/5.0 (Windows NT 10.0; Win64; x64) AppleWebKit/537.36 (KHTML, like Gecko) Chrome/118.0.0.0 Safari/537.36" etag="BQRJTpF6JAVUpvtrSv1j" version="22.0.8" type="device">
  <diagram name="Page-1" id="7ghnGriKJnqycAxNpUX0">
    <mxGraphModel dx="1434" dy="772" grid="1" gridSize="10" guides="1" tooltips="1" connect="1" arrows="1" fold="1" page="1" pageScale="1" pageWidth="850" pageHeight="1100" math="0" shadow="0">
      <root>
        <mxCell id="0" />
        <mxCell id="1" parent="0" />
        <mxCell id="kZjsCWbUrRkO6_6I_Ed0-1" value="" style="shape=image;verticalLabelPosition=bottom;labelBackgroundColor=default;verticalAlign=top;aspect=fixed;imageAspect=0;image=https://cdn-images-1.medium.com/max/1200/1*5-aoK8IBmXve5whBQM90GA.png;" parent="1" vertex="1">
          <mxGeometry x="70" y="530" width="80" height="80" as="geometry" />
        </mxCell>
        <mxCell id="kZjsCWbUrRkO6_6I_Ed0-2" value="" style="endArrow=classic;html=1;rounded=0;exitX=1;exitY=0.5;exitDx=0;exitDy=0;entryX=0;entryY=0.5;entryDx=0;entryDy=0;" parent="1" source="kZjsCWbUrRkO6_6I_Ed0-1" target="kZjsCWbUrRkO6_6I_Ed0-3" edge="1">
          <mxGeometry width="50" height="50" relative="1" as="geometry">
            <mxPoint x="311" y="500" as="sourcePoint" />
            <mxPoint x="336" y="400" as="targetPoint" />
          </mxGeometry>
        </mxCell>
        <mxCell id="kZjsCWbUrRkO6_6I_Ed0-3" value="" style="shape=image;verticalLabelPosition=bottom;labelBackgroundColor=default;verticalAlign=top;aspect=fixed;imageAspect=0;image=https://upload.wikimedia.org/wikipedia/commons/thumb/e/e0/Mqtt-hor.svg/2560px-Mqtt-hor.svg.png;" parent="1" vertex="1">
          <mxGeometry x="258" y="360" width="156.86" height="40" as="geometry" />
        </mxCell>
        <mxCell id="kZjsCWbUrRkO6_6I_Ed0-5" value="Broker" style="text;strokeColor=none;fillColor=none;html=1;fontSize=24;fontStyle=1;verticalAlign=middle;align=center;" parent="1" vertex="1">
          <mxGeometry x="286" y="400" width="100" height="31.25" as="geometry" />
        </mxCell>
        <mxCell id="kZjsCWbUrRkO6_6I_Ed0-8" value="Subscribe" style="text;html=1;strokeColor=none;fillColor=none;align=center;verticalAlign=middle;whiteSpace=wrap;rounded=0;" parent="1" vertex="1">
          <mxGeometry x="130" y="470" width="60" height="30" as="geometry" />
        </mxCell>
        <mxCell id="kZjsCWbUrRkO6_6I_Ed0-9" value="" style="outlineConnect=0;dashed=0;verticalLabelPosition=bottom;verticalAlign=top;align=center;html=1;shape=mxgraph.aws3.sensor;fillColor=#5294CF;gradientColor=none;" parent="1" vertex="1">
          <mxGeometry x="710" y="220" width="80" height="80" as="geometry" />
        </mxCell>
        <mxCell id="kZjsCWbUrRkO6_6I_Ed0-11" value="Flutter&lt;br&gt;App" style="text;strokeColor=none;fillColor=none;html=1;fontSize=24;fontStyle=1;verticalAlign=middle;align=center;" parent="1" vertex="1">
          <mxGeometry x="70" y="610" width="80" height="80" as="geometry" />
        </mxCell>
        <mxCell id="kZjsCWbUrRkO6_6I_Ed0-12" value="" style="endArrow=classic;html=1;rounded=0;exitX=0;exitY=0.43;exitDx=0;exitDy=0;entryX=1;entryY=0.5;entryDx=0;entryDy=0;exitPerimeter=0;" parent="1" source="kZjsCWbUrRkO6_6I_Ed0-9" target="kZjsCWbUrRkO6_6I_Ed0-13" edge="1">
          <mxGeometry width="50" height="50" relative="1" as="geometry">
            <mxPoint x="560" y="280" as="sourcePoint" />
            <mxPoint x="707" y="380" as="targetPoint" />
          </mxGeometry>
        </mxCell>
        <mxCell id="kZjsCWbUrRkO6_6I_Ed0-14" style="edgeStyle=orthogonalEdgeStyle;rounded=0;orthogonalLoop=1;jettySize=auto;html=1;entryX=1;entryY=0.5;entryDx=0;entryDy=0;" parent="1" source="kZjsCWbUrRkO6_6I_Ed0-13" target="kZjsCWbUrRkO6_6I_Ed0-3" edge="1">
          <mxGeometry relative="1" as="geometry">
            <mxPoint x="490" y="380" as="targetPoint" />
          </mxGeometry>
        </mxCell>
        <mxCell id="kZjsCWbUrRkO6_6I_Ed0-13" value="" style="shape=image;verticalLabelPosition=bottom;labelBackgroundColor=default;verticalAlign=top;aspect=fixed;imageAspect=0;image=https://m1cr0lab-esp32.github.io/remote-control-with-websocket/logo/thumbnail.png;" parent="1" vertex="1">
          <mxGeometry x="530" y="340" width="80" height="80" as="geometry" />
        </mxCell>
        <mxCell id="kZjsCWbUrRkO6_6I_Ed0-15" value="" style="outlineConnect=0;dashed=0;verticalLabelPosition=bottom;verticalAlign=top;align=center;html=1;shape=mxgraph.aws3.sensor;fillColor=#5294CF;gradientColor=none;" parent="1" vertex="1">
          <mxGeometry x="710" y="310" width="80" height="80" as="geometry" />
        </mxCell>
        <mxCell id="kZjsCWbUrRkO6_6I_Ed0-16" value="" style="endArrow=classic;html=1;rounded=0;exitX=0;exitY=0.43;exitDx=0;exitDy=0;entryX=1;entryY=0.5;entryDx=0;entryDy=0;exitPerimeter=0;" parent="1" source="kZjsCWbUrRkO6_6I_Ed0-15" target="kZjsCWbUrRkO6_6I_Ed0-13" edge="1">
          <mxGeometry width="50" height="50" relative="1" as="geometry">
            <mxPoint x="570" y="290" as="sourcePoint" />
            <mxPoint x="650" y="390" as="targetPoint" />
          </mxGeometry>
        </mxCell>
        <mxCell id="kZjsCWbUrRkO6_6I_Ed0-17" value="" style="outlineConnect=0;dashed=0;verticalLabelPosition=bottom;verticalAlign=top;align=center;html=1;shape=mxgraph.aws3.sensor;fillColor=#5294CF;gradientColor=none;" parent="1" vertex="1">
          <mxGeometry x="710" y="400" width="80" height="80" as="geometry" />
        </mxCell>
        <mxCell id="kZjsCWbUrRkO6_6I_Ed0-18" value="" style="endArrow=classic;html=1;rounded=0;exitX=0;exitY=0.43;exitDx=0;exitDy=0;exitPerimeter=0;entryX=1;entryY=0.5;entryDx=0;entryDy=0;" parent="1" source="kZjsCWbUrRkO6_6I_Ed0-17" target="kZjsCWbUrRkO6_6I_Ed0-13" edge="1">
          <mxGeometry width="50" height="50" relative="1" as="geometry">
            <mxPoint x="580" y="300" as="sourcePoint" />
            <mxPoint x="650" y="400" as="targetPoint" />
          </mxGeometry>
        </mxCell>
        <mxCell id="kZjsCWbUrRkO6_6I_Ed0-19" value="" style="outlineConnect=0;dashed=0;verticalLabelPosition=bottom;verticalAlign=top;align=center;html=1;shape=mxgraph.aws3.sensor;fillColor=#5294CF;gradientColor=none;" parent="1" vertex="1">
          <mxGeometry x="710" y="490" width="80" height="80" as="geometry" />
        </mxCell>
        <mxCell id="kZjsCWbUrRkO6_6I_Ed0-20" value="" style="endArrow=classic;html=1;rounded=0;exitX=0;exitY=0.43;exitDx=0;exitDy=0;entryX=1;entryY=0.5;entryDx=0;entryDy=0;exitPerimeter=0;" parent="1" source="kZjsCWbUrRkO6_6I_Ed0-19" target="kZjsCWbUrRkO6_6I_Ed0-13" edge="1">
          <mxGeometry width="50" height="50" relative="1" as="geometry">
            <mxPoint x="590" y="310" as="sourcePoint" />
            <mxPoint x="670" y="410" as="targetPoint" />
          </mxGeometry>
        </mxCell>
        <mxCell id="kZjsCWbUrRkO6_6I_Ed0-21" value="Sensors" style="text;strokeColor=none;fillColor=none;html=1;fontSize=24;fontStyle=1;verticalAlign=middle;align=center;" parent="1" vertex="1">
          <mxGeometry x="700" y="580" width="100" height="31.25" as="geometry" />
        </mxCell>
        <mxCell id="kZjsCWbUrRkO6_6I_Ed0-22" value="ESP32" style="text;strokeColor=none;fillColor=none;html=1;fontSize=24;fontStyle=1;verticalAlign=middle;align=center;" parent="1" vertex="1">
          <mxGeometry x="520" y="420" width="100" height="31.25" as="geometry" />
        </mxCell>
        <mxCell id="kZjsCWbUrRkO6_6I_Ed0-23" value="Publish" style="text;html=1;strokeColor=none;fillColor=none;align=center;verticalAlign=middle;whiteSpace=wrap;rounded=0;" parent="1" vertex="1">
          <mxGeometry x="450" y="360" width="50" height="20" as="geometry" />
        </mxCell>
        <mxCell id="kZjsCWbUrRkO6_6I_Ed0-30" value="" style="shape=image;verticalLabelPosition=bottom;labelBackgroundColor=default;verticalAlign=top;aspect=fixed;imageAspect=0;image=https://upload.wikimedia.org/wikipedia/commons/thumb/c/c3/Python-logo-notext.svg/800px-Python-logo-notext.svg.png;" parent="1" vertex="1">
          <mxGeometry x="70" y="200" width="80" height="87.71" as="geometry" />
        </mxCell>
        <mxCell id="kZjsCWbUrRkO6_6I_Ed0-28" value="Subscribe &amp;amp; Publish" style="text;html=1;strokeColor=none;fillColor=none;align=center;verticalAlign=middle;whiteSpace=wrap;rounded=0;" parent="1" vertex="1">
          <mxGeometry x="160" y="330" width="60" height="30" as="geometry" />
        </mxCell>
        <mxCell id="kZjsCWbUrRkO6_6I_Ed0-29" value="Python&lt;br&gt;AI" style="text;strokeColor=none;fillColor=none;html=1;fontSize=24;fontStyle=1;verticalAlign=middle;align=center;" parent="1" vertex="1">
          <mxGeometry x="70" y="290" width="80" height="80" as="geometry" />
        </mxCell>
        <mxCell id="kZjsCWbUrRkO6_6I_Ed0-32" value="" style="endArrow=classic;startArrow=classic;html=1;rounded=0;exitX=1;exitY=0.5;exitDx=0;exitDy=0;entryX=0;entryY=0.5;entryDx=0;entryDy=0;" parent="1" source="kZjsCWbUrRkO6_6I_Ed0-30" target="kZjsCWbUrRkO6_6I_Ed0-3" edge="1">
          <mxGeometry width="50" height="50" relative="1" as="geometry">
            <mxPoint x="390" y="500" as="sourcePoint" />
            <mxPoint x="440" y="450" as="targetPoint" />
          </mxGeometry>
        </mxCell>
        <mxCell id="kZjsCWbUrRkO6_6I_Ed0-37" style="edgeStyle=orthogonalEdgeStyle;rounded=0;orthogonalLoop=1;jettySize=auto;html=1;entryX=0;entryY=0.5;entryDx=0;entryDy=0;" parent="1" source="kZjsCWbUrRkO6_6I_Ed0-33" target="kZjsCWbUrRkO6_6I_Ed0-36" edge="1">
          <mxGeometry relative="1" as="geometry" />
        </mxCell>
        <mxCell id="kZjsCWbUrRkO6_6I_Ed0-33" value="" style="shape=image;verticalLabelPosition=bottom;labelBackgroundColor=default;verticalAlign=top;aspect=fixed;imageAspect=0;image=https://upload.wikimedia.org/wikipedia/en/thumb/c/c5/Aveva_logo.svg/1200px-Aveva_logo.svg.png;" parent="1" vertex="1">
          <mxGeometry x="264.71" y="580" width="142.57" height="60" as="geometry" />
        </mxCell>
        <mxCell id="kZjsCWbUrRkO6_6I_Ed0-34" value="" style="endArrow=classic;html=1;rounded=0;exitX=0.5;exitY=1;exitDx=0;exitDy=0;entryX=0.5;entryY=0;entryDx=0;entryDy=0;" parent="1" source="kZjsCWbUrRkO6_6I_Ed0-5" target="kZjsCWbUrRkO6_6I_Ed0-33" edge="1">
          <mxGeometry width="50" height="50" relative="1" as="geometry">
            <mxPoint x="390" y="500" as="sourcePoint" />
            <mxPoint x="440" y="450" as="targetPoint" />
          </mxGeometry>
        </mxCell>
        <mxCell id="kZjsCWbUrRkO6_6I_Ed0-35" value="Subscribe" style="text;html=1;strokeColor=none;fillColor=none;align=center;verticalAlign=middle;whiteSpace=wrap;rounded=0;" parent="1" vertex="1">
          <mxGeometry x="347.28" y="500" width="60" height="30" as="geometry" />
        </mxCell>
        <mxCell id="kZjsCWbUrRkO6_6I_Ed0-36" value="" style="shape=image;verticalLabelPosition=bottom;labelBackgroundColor=default;verticalAlign=top;aspect=fixed;imageAspect=0;image=https://www.sqlservertutorial.net/wp-content/uploads/sql-server-tutorial.svg;" parent="1" vertex="1">
          <mxGeometry x="470" y="545" width="160.83" height="130" as="geometry" />
        </mxCell>
        <mxCell id="kZjsCWbUrRkO6_6I_Ed0-38" value="AVEVA" style="text;strokeColor=none;fillColor=none;html=1;fontSize=24;fontStyle=1;verticalAlign=middle;align=center;" parent="1" vertex="1">
          <mxGeometry x="286" y="640" width="100" height="31.25" as="geometry" />
        </mxCell>
        <mxCell id="kZjsCWbUrRkO6_6I_Ed0-39" value="MSQL" style="text;strokeColor=none;fillColor=none;html=1;fontSize=24;fontStyle=1;verticalAlign=middle;align=center;" parent="1" vertex="1">
          <mxGeometry x="500.41" y="680" width="100" height="31.25" as="geometry" />
        </mxCell>
        <mxCell id="kZjsCWbUrRkO6_6I_Ed0-41" value="IT" style="text;strokeColor=none;fillColor=none;html=1;fontSize=24;fontStyle=1;verticalAlign=middle;align=center;" parent="1" vertex="1">
          <mxGeometry x="95" y="160" width="30" height="20" as="geometry" />
        </mxCell>
        <mxCell id="kZjsCWbUrRkO6_6I_Ed0-42" value="OT" style="text;strokeColor=none;fillColor=none;html=1;fontSize=24;fontStyle=1;verticalAlign=middle;align=center;" parent="1" vertex="1">
          <mxGeometry x="735" y="160" width="30" height="20" as="geometry" />
        </mxCell>
        <mxCell id="kZjsCWbUrRkO6_6I_Ed0-45" value="" style="endArrow=classic;startArrow=classic;html=1;rounded=0;exitX=1;exitY=0.5;exitDx=0;exitDy=0;entryX=0;entryY=0.5;entryDx=0;entryDy=0;" parent="1" source="kZjsCWbUrRkO6_6I_Ed0-41" target="kZjsCWbUrRkO6_6I_Ed0-42" edge="1">
          <mxGeometry width="50" height="50" relative="1" as="geometry">
            <mxPoint x="420" y="190" as="sourcePoint" />
            <mxPoint x="470" y="140" as="targetPoint" />
          </mxGeometry>
        </mxCell>
        <mxCell id="fZhl-BRKLtyVLdcyxcdi-1" value="" style="endArrow=classic;startArrow=classic;html=1;rounded=0;exitX=0;exitY=0.5;exitDx=0;exitDy=0;entryX=0.5;entryY=1;entryDx=0;entryDy=0;" edge="1" parent="1" source="kZjsCWbUrRkO6_6I_Ed0-30" target="kZjsCWbUrRkO6_6I_Ed0-39">
          <mxGeometry width="50" height="50" relative="1" as="geometry">
            <mxPoint x="160" y="254" as="sourcePoint" />
            <mxPoint x="268" y="390" as="targetPoint" />
            <Array as="points">
              <mxPoint x="40" y="244" />
              <mxPoint x="40" y="760" />
              <mxPoint x="550" y="760" />
            </Array>
          </mxGeometry>
        </mxCell>
        <mxCell id="fZhl-BRKLtyVLdcyxcdi-2" value="SQL Queries" style="text;html=1;strokeColor=none;fillColor=none;align=center;verticalAlign=middle;whiteSpace=wrap;rounded=0;" vertex="1" parent="1">
          <mxGeometry x="50" y="720" width="80" height="30" as="geometry" />
        </mxCell>
      </root>
    </mxGraphModel>
  </diagram>
</mxfile>
